<?xml version="1.0" encoding="UTF-8" standalone="no"?><!DOCTYPE svg PUBLIC "-//W3C//DTD SVG 1.1//EN" "http://www.w3.org/Graphics/SVG/1.1/DTD/svg11.dtd"><svg width="100%" height="100%" viewBox="0 0 512 512" version="1.1" xmlns="http://www.w3.org/2000/svg" xmlns:xlink="http://www.w3.org/1999/xlink" xml:space="preserve" xmlns:serif="http://www.serif.com/" style="fill-rule:evenodd;clip-rule:evenodd;stroke-linejoin:round;stroke-miterlimit:2;"><g id="Sfondo-APP" serif:id="Sfondo APP"><path d="M436.759,0c19.955,-0 39.093,7.927 53.203,22.038c14.111,14.11 22.038,33.248 22.038,53.203l0,361.518c0,19.955 -7.927,39.093 -22.038,53.203c-14.11,14.111 -33.248,22.038 -53.203,22.038l-361.518,0c-19.955,0 -39.093,-7.927 -53.203,-22.038c-14.111,-14.11 -22.038,-33.248 -22.038,-53.203l0,-361.518c-0,-19.955 7.927,-39.093 22.038,-53.203c14.11,-14.111 33.248,-22.038 53.203,-22.038l361.518,0Z" style="fill:url(#_Radial1);"/></g><g id="Carta"><path d="M351.01,61c22.086,-0 39.99,17.904 39.99,39.99l0,310.02c-0,22.086 -17.904,39.99 -39.99,39.99l-190.02,0c-22.086,0 -39.99,-17.904 -39.99,-39.99l0,-310.02c0,-22.086 17.904,-39.99 39.99,-39.99l190.02,0Zm-95.01,159.437c11.803,-22.426 35.41,-22.426 47.213,-11.213c11.804,11.213 11.804,33.639 -0,56.065c-8.263,16.82 -29.508,33.639 -47.213,44.853c-17.705,-11.214 -38.951,-28.033 -47.213,-44.853c-11.803,-22.426 -11.803,-44.852 -0,-56.065c11.803,-11.213 35.41,-11.213 47.213,11.213Z" style="fill:#fff;"/></g><defs><radialGradient id="_Radial1" cx="0" cy="0" r="1" gradientUnits="userSpaceOnUse" gradientTransform="matrix(-270,390,-390,-270,391,61)"><stop offset="0" style="stop-color:#8acdbc;stop-opacity:1"/><stop offset="0.5" style="stop-color:#67aeb8;stop-opacity:1"/><stop offset="1" style="stop-color:#2f82a8;stop-opacity:1"/></radialGradient></defs></svg>