<?xml version="1.0" encoding="utf-8"?>

<!DOCTYPE svg PUBLIC "-//W3C//DTD SVG 1.1//EN" "http://www.w3.org/Graphics/SVG/1.1/DTD/svg11.dtd">
<!-- Uploaded to: SVG Repo, www.svgrepo.com, Generator: SVG Repo Mixer Tools -->
<svg height="800px" width="800px" version="1.1" id="_x32_" xmlns="http://www.w3.org/2000/svg" xmlns:xlink="http://www.w3.org/1999/xlink" 
	 viewBox="0 0 512 512"  xml:space="preserve">
<style type="text/css">
	.st0{fill:#000000;}
</style>
<g>
	<path class="st0" d="M398.325,0H113.675C94.445,0,78.841,15.596,78.841,34.833v442.334c0,19.237,15.604,34.832,34.833,34.832
		h284.651c19.229,0,34.833-15.595,34.833-34.832V34.833C433.159,15.596,417.555,0,398.325,0z M258.74,320.726
		c-1.055,1.012-0.8,0.987-0.8,0.987c-0.494,0.596-1.208,0.953-1.94,0.953c-0.016,0-0.016,0-0.016,0c-0.715,0-1.43-0.357-1.924-0.953
		c0,0,0.221,0.025-0.799-0.987c-29.864-28.834-73.528-46.667-73.528-85.27c0-30.068,17.732-46.549,39.138-46.122
		c23.228,0.442,34.611,16.88,37.13,31.838c2.519-14.958,13.886-31.395,37.13-31.838c21.424-0.426,39.121,16.054,39.121,46.122
		C332.251,274.059,288.603,291.893,258.74,320.726z"/>
</g>
</svg>